<svg xmlns="http://www.w3.org/2000/svg" viewBox="0 0 1759.18 500.46">
    <defs>
        <style>
            .prefix__cls-1 {
                fill: #44b9d8
            }
        </style>
    </defs>
    <g id="prefix__Layer_2" data-name="Layer 2">
        <g id="prefix__Layer_1-2" data-name="Layer 1">
            <path class="prefix__cls-1"
                d="M687.92 365.12l-28.63 14.81q-.76-2-11.79-27.42t-29.12-65.3H509.45q-19.4 42.85-29.93 66.41t-11.64 26.31l-24.64-13.34Q448 357 482.7 282.27t72-157.14h23.91q36.79 82.38 72.3 159.62t37.01 80.37zM608 263.66q-9.75-22.47-20.58-47t-22.74-51.18l-.74.16q-9.25 20.22-22.32 49.72T520 263.66l-.09.18h88.14zM903 154.56q-2.94 0-24.65-.18t-65.68-.19q-.36 37.76-.55 57.27t-.18 53.21q0 32.4.27 65.82t.46 44.47H782.3q.36-11.06.64-45.11t.28-66.65v-50.91q0-18.89-.55-58.1-39.2-.18-63.57.1t-26.76.27v-25.39q18.95 0 46.08.19t57.86.18q44.52 0 74.41-.18l32.29-.19zM981.17 102.5H945.3V68.83h35.87zM978.41 375h-30.36q.18-11 .56-39.37t.36-81.32q0-21-.18-55t-.74-70.65h30.36q-.37 26.31-.64 61.17t-.28 56.94q0 55.93.37 86.56t.55 41.67zM1254.49 360.24l-23 18.95q-4.05-4.23-28.68-31.94t-75.93-86.45l.19-1.66q7-1.83 18.58-8a96 96 0 0019.51-13.35 60.08 60.08 0 0011.84-15.47q5.07-9.21 5.06-24.67 0-14.18-7.45-24.4a42.84 42.84 0 00-20.51-15 78.34 78.34 0 00-22.44-4.88q-11.78-.84-21.71-.83-6.63 0-10.12.09c-2.33.06-4 .09-5.15.09q-.37 35-.46 61.68t-.09 37.75q0 25.23.27 68.49t.46 54.32h-30.35q.18-11 .55-42.77t.37-79v-34q0-24.84-.92-90.52 1.83 0 18.37-.37t30.5-.36a255.23 255.23 0 0131 1.84 109 109 0 0129.41 7.9q18.18 7.73 28.84 22.7t10.66 35.21q0 26.1-16.07 43.48t-30.39 25.83v.92q25.21 29.46 55.31 60.77t32.35 33.65zM1508.06 365.12l-28.63 14.81q-.77-2-11.79-27.42t-29.12-65.3h-108.93q-19.39 42.85-29.93 66.41T1288 379.93l-24.64-13.34q4.78-9.57 39.46-84.32t72-157.14h23.91q36.79 82.38 72.3 159.62t37.03 80.37zm-79.94-101.46q-9.75-22.47-20.58-47t-22.74-51.18l-.74.16q-9.25 20.22-22.32 49.72t-21.59 48.25l-.09.18h88.14zM1759.18 253.17q0 32.39-15.9 56.85a122.61 122.61 0 01-41.28 39.37 183.8 183.8 0 01-49.17 19.87q-27.12 6.8-60.93 6.8-12.87 0-25.18-.36t-13.61-.37q0-.93.46-42.41t.46-78.65q0-19.68-.09-50.59t-.83-75.06q1.84 0 16.82-.18l16.09-.19q38 0 67.55 6.81t52.65 21.53q26.84 17.1 39.89 41.11t13.07 55.47zm-31.27-.18q0-23.93-10.29-43.42t-32.53-33.48a137.11 137.11 0 00-46-18.22q-25.26-5.15-45.84-5.15h-9.56q-.36 29.07-.46 48.2t-.09 30.54q0 8.1.09 37.81t.28 82.32h9.37a210 210 0 0048-5.61q24.07-5.61 40.61-15.54a103.41 103.41 0 0033.71-31.74q12.71-19.21 12.71-45.7zM222.8 0l6.62.06 185.1 417-62-1.89q-64.38-135.94-128.74-271.83-62.83 135.45-125.66 270.89l-67.72-.59z" />
            <path
                d="M414.52 429.5h-78.41L227.54 184.93l-6.63-.06L107.13 429.5H25.44L0 481.36l83.6-1.28 69.78-2.89 67.37-164.27q32.92 83.26 65.86 166.54l71.95.62 81.74 1.61q-12.9-26.1-25.78-52.19z"
                fill="#042a33" />
        </g>
    </g>
</svg>